HIERARCHY
ROOT hip
{
  OFFSET 0 0 0
  CHANNELS 6 Xposition Yposition Zposition Zrotation Yrotation Xrotation
  JOINT abdomen
  {
    OFFSET 0 20.6881 -0.73152
    CHANNELS 3 Zrotation Xrotation Yrotation
    JOINT chest
    {
      OFFSET 0 11.7043 -0.48768
      CHANNELS 3 Zrotation Xrotation Yrotation
      JOINT neck
      {
        OFFSET 0 22.1894 -2.19456
        CHANNELS 3 Zrotation Xrotation Yrotation
        JOINT head
        {
          OFFSET -0.24384 7.07133 1.2192
          CHANNELS 3 Zrotation Xrotation Yrotation
          JOINT leftEye
          {
            OFFSET 4.14528 8.04674 8.04672
            CHANNELS 3 Zrotation Xrotation Yrotation
            End Site
            {
              OFFSET 1 0 0
            }
          }
          JOINT rightEye
          {
            OFFSET -3.6576 8.04674 8.04672
            CHANNELS 3 Zrotation Xrotation Yrotation
            End Site
            {
              OFFSET 1 0 0
            }
          }
        }
      }
      JOINT rCollar
      {
        OFFSET -2.68224 19.2634 -4.8768
        CHANNELS 3 Zrotation Xrotation Yrotation
        JOINT rShldr
        {
          OFFSET -8.77824 -1.95073 1.46304
          CHANNELS 3 Zrotation Xrotation Yrotation
          JOINT rForeArm
          {
            OFFSET -28.1742 -1.7115 0.48768
            CHANNELS 3 Zrotation Xrotation Yrotation
            JOINT rHand
            {
              OFFSET -22.5879 0.773209 7.07136
              CHANNELS 3 Zrotation Xrotation Yrotation
              JOINT rThumb1
              {
                OFFSET -1.2192 -0.487915 3.41376
                CHANNELS 3 Zrotation Xrotation Yrotation
                JOINT rThumb2
                {
                  OFFSET -3.37035 -0.52449 3.41376
                  CHANNELS 3 Zrotation Xrotation Yrotation
                  End Site
                  {
                    OFFSET -1.78271 -1.18214 1.43049
                  }
                }
              }
              JOINT rIndex1
              {
                OFFSET -7.75947 0.938293 5.60832
                CHANNELS 3 Zrotation Xrotation Yrotation
                JOINT rIndex2
                {
                  OFFSET -2.54057 -0.884171 1.56538
                  CHANNELS 3 Zrotation Xrotation Yrotation
                  End Site
                  {
                    OFFSET -1.62519 -0.234802 1.16502
                  }
                }
              }
              JOINT rMid1
              {
                OFFSET -8.24714 1.18213 3.41376
                CHANNELS 3 Zrotation Xrotation Yrotation
                JOINT rMid2
                {
                  OFFSET -3.10165 -0.590103 1.0647
                  CHANNELS 3 Zrotation Xrotation Yrotation
                  End Site
                  {
                    OFFSET -2.48547 -0.328903 0.83742
                  }
                }
              }
              JOINT rRing1
              {
                OFFSET -8.82822 0.546677 1.51678
                CHANNELS 3 Zrotation Xrotation Yrotation
                JOINT rRing2
                {
                  OFFSET -2.60934 -0.819778 -0.0198488
                  CHANNELS 3 Zrotation Xrotation Yrotation
                  End Site
                  {
                    OFFSET -2.33842 -0.294052 0.168128
                  }
                }
              }
              JOINT rPinky1
              {
                OFFSET -8.27202 -0.0477905 -0.4584
                CHANNELS 3 Zrotation Xrotation Yrotation
                JOINT rPinky2
                {
                  OFFSET -1.82734 -0.647385 -0.700984
                  CHANNELS 3 Zrotation Xrotation Yrotation
                  End Site
                  {
                    OFFSET -1.69225 -0.51767 -0.607171
                  }
                }
              }
            }
          }
        }
      }
      JOINT lCollar
      {
        OFFSET 2.68224 19.2634 -4.8768
        CHANNELS 3 Zrotation Xrotation Yrotation
        JOINT lShldr
        {
          OFFSET 8.77824 -1.95073 1.46304
          CHANNELS 3 Zrotation Xrotation Yrotation
          JOINT lForeArm
          {
            OFFSET 28.1742 -1.7115 0.48768
            CHANNELS 3 Zrotation Xrotation Yrotation
            JOINT lHand
            {
              OFFSET 22.5879 0.773209 7.07136
              CHANNELS 3 Zrotation Xrotation Yrotation
              JOINT lThumb1
              {
                OFFSET 1.2192 -0.487915 3.41376
                CHANNELS 3 Zrotation Xrotation Yrotation
                JOINT lThumb2
                {
                  OFFSET 3.37035 -0.52449 3.41376
                  CHANNELS 3 Zrotation Xrotation Yrotation
                  End Site
                  {
                    OFFSET 1.78271 -1.18214 1.43049
                  }
                }
              }
              JOINT lIndex1
              {
                OFFSET 7.75947 0.938293 5.60832
                CHANNELS 3 Zrotation Xrotation Yrotation
                JOINT lIndex2
                {
                  OFFSET 2.54057 -0.884171 1.56538
                  CHANNELS 3 Zrotation Xrotation Yrotation
                  End Site
                  {
                    OFFSET 1.62519 -0.234802 1.16502
                  }
                }
              }
              JOINT lMid1
              {
                OFFSET 8.24714 1.18213 3.41376
                CHANNELS 3 Zrotation Xrotation Yrotation
                JOINT lMid2
                {
                  OFFSET 3.10165 -0.590103 1.0647
                  CHANNELS 3 Zrotation Xrotation Yrotation
                  End Site
                  {
                    OFFSET 2.48547 -0.328903 0.83742
                  }
                }
              }
              JOINT lRing1
              {
                OFFSET 8.82822 0.546677 1.51678
                CHANNELS 3 Zrotation Xrotation Yrotation
                JOINT lRing2
                {
                  OFFSET 2.60934 -0.819778 -0.0198488
                  CHANNELS 3 Zrotation Xrotation Yrotation
                  End Site
                  {
                    OFFSET 2.33842 -0.294052 0.168128
                  }
                }
              }
              JOINT lPinky1
              {
                OFFSET 8.27202 -0.0477905 -0.4584
                CHANNELS 3 Zrotation Xrotation Yrotation
                JOINT lPinky2
                {
                  OFFSET 1.82734 -0.647385 -0.700984
                  CHANNELS 3 Zrotation Xrotation Yrotation
                  End Site
                  {
                    OFFSET 1.69225 -0.51767 -0.607171
                  }
                }
              }
            }
          }
        }
      }
    }
  }
  JOINT rButtock
  {
    OFFSET -8.77824 4.35084 1.2192
    CHANNELS 3 Zrotation Xrotation Yrotation
    JOINT rThigh
    {
      OFFSET 0 -1.70687 -2.19456
      CHANNELS 3 Zrotation Xrotation Yrotation
      JOINT rShin
      {
        OFFSET 0 -36.8199 0.73152
        CHANNELS 3 Zrotation Xrotation Yrotation
        JOINT rFoot
        {
          OFFSET 0.73152 -45.1104 -5.12064
          CHANNELS 3 Zrotation Xrotation Yrotation
          End Site
          {
            OFFSET -1.1221 -3.69964 12.103
          }
        }
      }
    }
  }
  JOINT lButtock
  {
    OFFSET 8.77824 4.35084 1.2192
    CHANNELS 3 Zrotation Xrotation Yrotation
    JOINT lThigh
    {
      OFFSET 0 -1.70687 -2.19456
      CHANNELS 3 Zrotation Xrotation Yrotation
      JOINT lShin
      {
        OFFSET 0 -36.8199 0.73152
        CHANNELS 3 Zrotation Xrotation Yrotation
        JOINT lFoot
        {
          OFFSET -0.73152 -45.1104 -5.12064
          CHANNELS 3 Zrotation Xrotation Yrotation
          End Site
          {
            OFFSET 1.1221 -3.69964 12.103
          }
        }
      }
    }
  }
}
MOTION
Frames:	5
Frame Time:	0.03333
-46.4078 65.3695 -5.5256 -179.347793 -48.444627 -177.573594 3.38901 13.235539 75.939836 -26.94781 4.735431 -79.073088 -13.216806 15.252128 -107.86642 5.97293 23.738319 69.485134 -11.74752 6.91786 -60.870842 13.452472 -1.406434 -11.88309 5.971937 -33.23695 -5.103885 -157.539406 -77.243529 171.830189 -9.635317 -44.086249 -122.80453 -166.752444 -5.731164 108.068437 -138.517952 3.180693 32.170372 -126.419487 -27.603771 -32.159865 5.912371 0.166599 67.814848 75.881247 52.478434 34.616786 -118.800053 81.06514 17.845725 -116.980525 -3.260685 -8.203518 -104.569759 5.41661 111.231992 -120.868623 -24.738627 176.101034 -40.199296 0.158153 73.706599 -39.986522 13.376354 -152.006081 156.365192 33.855255 -137.342895 163.774007 -74.618847 153.195731 9.358445 -32.757912 -90.428528 -13.190664 -11.565411 13.507484 65.776521 4.706503 -59.957313 -52.51851 -51.308078 43.628181 52.276438 -61.569766 -9.628357 31.600805 -31.832382 144.45333 -168.743207 -18.758818 -177.18411 4.22166 9.611793 53.836635 -95.584738 14.71652 117.238471 -62.408664 -26.593161 -179.533477 46.931277 -65.111548 -40.242145 60.531747 25.880022 -146.041053 -42.412835 52.375798 -46.672442 88.497062 -33.355894 -180.0 65.076776 -27.20985 146.429409 102.609802 -39.06185 -156.951733 86.058232 62.662633 -45.524827 -141.348135 -67.51261 0.0 67.961885 -14.931946 -5.461031 -141.953622 -46.732763 96.931215
-47.5353 65.2021 -4.8823 -178.973742 -46.438552 -169.923193 3.723448 -0.347645 91.550353 -24.622071 11.955205 -90.253526 0.231031 13.127007 44.442757 -3.276268 -19.356463 -79.835253 -31.708176 17.080912 -55.73924 -15.189529 1.234127 -9.236111 -25.816081 58.010992 34.303264 -164.164768 -17.410979 159.604353 52.174208 -77.795289 -59.274997 -159.221387 13.641012 106.953924 11.739218 -18.808608 46.078052 33.052127 -54.542454 -91.202618 20.797262 13.191184 60.433086 176.326674 51.484664 -54.975701 136.837894 -60.734507 -123.584186 122.371634 -16.920224 -37.79058 -2.570868 -0.743744 72.932844 24.758352 20.626271 -62.450087 -91.340409 20.405298 100.917996 -8.938959 -4.190443 138.850198 -8.490618 -71.033963 -10.27893 143.114815 -14.59792 -174.0866 33.00021 70.709078 99.623392 -152.695474 -9.047073 -128.633583 -72.542954 4.810503 -26.792148 107.736763 -57.592575 88.56902 -137.330191 49.808554 -98.68483 129.128193 12.762125 4.819861 -150.531877 19.480267 172.351015 -84.310133 66.427188 140.003141 105.945146 14.811943 72.388277 -152.264191 0.566902 5.916558 148.56257 60.765503 -113.745336 132.021788 -22.098359 32.19706 8.471459 11.526672 -36.699538 10.69525 -66.920707 57.119149 46.666619 56.241395 -121.183104 126.609389 49.529042 -36.128077 -169.533308 13.471733 -15.806899 -179.902789 -27.040654 -169.638931 -20.163457 -73.423812 75.5387 73.441966 -79.326128 166.191166
-47.477000000000004 65.17500000000001 -4.3789 -165.860059 -45.042168 178.888616 16.725801 -6.646255 -180.0 8.619047 7.014713 -170.730642 6.644001 19.842437 107.063424 -33.61855 15.17862 -119.74064 -122.419909 -21.675231 -38.413881 -13.565137 2.358033 -19.634724 5.062708 37.758552 -12.161041 -109.305892 47.715465 102.772906 -173.391453 -32.699493 -89.07624 -22.648487 -22.466642 -49.613311 3.667144 -6.100299 37.773231 46.025818 39.456201 -8.859778 95.701385 -4.958013 9.952836 -169.405369 61.518884 -122.380012 37.761612 -36.689871 145.115997 0.548701 -46.744342 -99.404762 -109.331214 -9.509528 115.608149 -85.290353 -54.636405 171.301995 -136.692575 14.947819 135.157096 -136.807539 28.107421 99.581323 129.164328 48.873197 -115.374423 98.262278 86.586045 -82.460858 177.306132 24.028812 96.032376 -6.132736 16.157129 19.797233 -6.054056 28.315375 -69.083918 159.549022 11.412833 -172.889248 114.247832 55.728619 -22.100521 165.071831 6.947572 -31.445722 32.96381 -7.015033 45.955341 -20.375274 22.50287 -66.741483 94.810988 -26.856242 68.510186 -21.325904 -76.456697 109.948959 -28.122302 -52.721168 -98.78404 -62.608905 -19.529928 -85.832792 -42.465026 61.904174 -66.67331 99.656913 -3.779905 104.802569 60.745767 21.288441 37.216034 -1.730037 14.172659 -85.153797 -152.512943 9.457078 -0.0 177.008239 -28.335917 -1.473358 -23.039797 72.360185 113.34249 -76.599857 -74.880242 175.472961
-47.3828 63.51989999999999 -4.581799999999999 -167.574639 -41.866067 177.705072 13.737436 -3.171163 92.090367 -7.911793 6.681514 -74.871112 17.658693 27.867277 96.721749 -54.956524 23.164557 -108.061199 -77.70023 16.624757 -20.562492 -21.029275 4.150289 -22.092983 22.825495 74.787753 -30.977162 -18.79207 -6.14587 29.235999 115.216131 83.845681 112.991589 -155.24161 13.401186 100.639877 -91.106538 0.578669 42.499374 55.812325 6.275611 61.100768 48.029739 28.383237 27.522506 24.070461 -39.583142 -97.349126 177.038549 -39.012068 39.161998 175.404553 -27.459684 107.069822 81.06768 -29.497946 63.456378 -177.386305 61.787284 102.917885 170.149167 -18.025808 162.115803 128.36419 5.734017 -132.356652 29.996602 27.928531 -24.8195 73.152926 46.827827 -69.403824 2.391836 59.645555 110.690527 -168.771467 -6.581157 -130.650926 -75.061445 46.034489 -20.254851 -175.256687 58.037968 -89.532001 -130.88334 -4.749628 -144.292205 -174.252177 -42.849042 157.941113 70.4101 58.102013 22.010287 162.202303 -18.966747 -61.322019 117.17493 -60.170529 86.73791 60.433718 -47.561078 133.375939 15.81955 11.825834 -80.775749 -35.162837 -60.192437 -161.3259 75.032699 14.28696 46.858874 -98.87178 14.024176 27.438129 62.307816 16.366462 -3.97861 -39.315411 31.38968 -22.527089 -6.027875 45.7604 8.384594 77.407083 -75.004285 77.82292 29.500368 66.919648 25.682425 -139.523688 11.832432 47.337762
-48.0824 63.4791 -5.1595 -173.096063 -38.457137 -177.663539 6.212426 -6.175594 99.098582 -6.701133 5.598889 -82.119073 -2.218567 21.723611 -53.73184 45.86419 -23.88686 40.797698 -76.676371 10.960534 -13.834258 -22.663234 3.471028 -17.196095 -79.66402 -63.061654 -97.333172 -64.277131 -78.593829 -104.89356 89.951684 -34.756913 -115.036356 -62.442587 59.012048 15.875585 4.208099 -15.774258 24.869823 15.187794 -42.729917 -90.991476 -95.143997 -32.335125 121.644553 21.064871 -22.574002 70.35952 -166.375762 -42.256483 59.365144 -4.968126 22.467668 40.771134 92.094013 -35.498642 71.071624 -106.316179 28.368946 36.434847 -41.785546 -17.529169 45.096561 -32.785338 -82.992178 -99.884248 99.21775 56.089165 -92.646802 -163.824426 -28.939349 -172.995627 99.189501 -35.601031 -123.053362 -153.969305 -55.74044 -121.044033 32.497549 2.3444 -105.913387 86.013606 80.109834 -81.935186 127.950663 -72.492039 85.755683 173.594759 53.019046 117.565023 163.906824 61.972393 -32.557597 170.440041 1.903289 -19.70874 116.203347 -68.137273 86.447265 88.005954 -37.051923 159.255856 -65.793657 -72.198431 -34.078846 -15.41183 -29.670873 167.430091 10.92124 88.066281 180.0 144.471154 48.489596 43.637961 49.003969 66.429599 175.336344 -6.876675 24.540377 155.4259 36.437255 48.281168 39.11514 -89.227932 -41.410966 90.510706 57.150903 -64.044202 -27.923728 -153.90768 -28.514417 101.917194
